<?xml version="1.0" encoding="UTF-8" standalone="no"?>
<!DOCTYPE svg PUBLIC "-//W3C//DTD SVG 20010904//EN"
              "http://www.w3.org/TR/2001/REC-SVG-20010904/DTD/svg10.dtd">

<svg xmlns="http://www.w3.org/2000/svg"
     width="564.374mm" height="141.093mm"
     viewBox="0 0 1600 400">
  <path id="Selection"
        fill="white" stroke="white" stroke-width="1"
        d="M 37.32,27.02
           C 41.58,25.40 46.47,26.00 51.00,26.00
             51.00,26.00 74.00,26.00 74.00,26.00
             74.00,26.00 154.00,26.00 154.00,26.00
             154.00,26.00 427.00,26.00 427.00,26.00
             430.21,26.01 436.17,25.45 436.41,30.06
             436.54,32.58 434.00,35.92 432.69,38.00
             432.69,38.00 424.80,52.00 424.80,52.00
             424.80,52.00 393.56,106.00 393.56,106.00
             393.56,106.00 302.57,264.00 302.57,264.00
             302.57,264.00 280.85,301.00 280.85,301.00
             280.85,301.00 250.72,353.00 250.72,353.00
             250.72,353.00 242.42,367.00 242.42,367.00
             241.31,368.89 239.85,371.76 237.79,372.72
             232.11,375.36 226.67,361.79 224.32,358.00
             224.32,358.00 191.15,301.00 191.15,301.00
             191.15,301.00 143.45,219.00 143.45,219.00
             143.45,219.00 113.14,166.00 113.14,166.00
             113.14,166.00 92.55,130.00 92.55,130.00
             92.55,130.00 70.57,92.00 70.57,92.00
             70.57,92.00 42.75,44.00 42.75,44.00
             40.24,39.23 32.88,32.03 37.32,27.02 Z
           M 231.00,41.00
           C 231.00,41.00 211.00,40.00 211.00,40.00
             211.00,40.00 175.00,40.00 175.00,40.00
             175.00,40.00 58.00,40.00 58.00,40.00
             58.00,40.00 73.85,69.00 73.85,69.00
             73.85,69.00 113.15,137.00 113.15,137.00
             113.15,137.00 132.15,170.00 132.15,170.00
             132.15,170.00 145.00,190.00 145.00,190.00
             145.00,190.00 166.28,153.00 166.28,153.00
             166.28,153.00 195.87,102.00 195.87,102.00
             195.87,102.00 231.00,41.00 231.00,41.00 Z
           M 414.00,40.00
           C 414.00,40.00 297.00,40.00 297.00,40.00
             297.00,40.00 261.00,40.00 261.00,40.00
             261.00,40.00 241.00,41.00 241.00,41.00
             241.00,41.00 258.58,72.00 258.58,72.00
             258.58,72.00 299.14,142.00 299.14,142.00
             299.14,142.00 318.94,176.00 318.94,176.00
             318.94,176.00 328.00,190.00 328.00,190.00
             328.00,190.00 387.28,88.00 387.28,88.00
             387.28,88.00 404.85,57.00 404.85,57.00
             404.85,57.00 414.00,40.00 414.00,40.00 Z
           M 502.00,147.00
           C 503.30,153.39 505.70,160.58 512.00,163.69
             516.05,165.68 528.00,165.00 533.00,165.00
             533.00,165.00 580.00,165.00 580.00,165.00
             580.00,165.00 602.00,165.00 602.00,165.00
             603.95,165.04 606.63,164.90 607.98,166.60
             609.23,168.19 609.00,172.01 609.00,174.00
             609.00,174.00 609.00,195.00 609.00,195.00
             608.96,196.95 609.10,199.63 607.40,200.98
             605.81,202.23 601.99,202.00 600.00,202.00
             600.00,202.00 532.00,202.00 532.00,202.00
             505.78,202.00 486.56,204.52 466.30,183.72
             454.76,171.87 448.08,152.42 448.00,136.00
             448.00,136.00 448.00,120.00 448.00,120.00
             448.41,85.52 473.55,56.06 509.00,56.00
             509.00,56.00 609.00,56.00 609.00,56.00
             609.00,56.00 609.00,92.00 609.00,92.00
             609.00,92.00 523.00,92.00 523.00,92.00
             509.07,92.02 505.72,97.31 502.00,110.00
             502.00,110.00 557.00,110.00 557.00,110.00
             560.39,110.00 572.00,109.10 573.98,111.60
             575.23,113.19 575.00,117.01 575.00,119.00
             575.00,119.00 575.00,147.00 575.00,147.00
             575.00,147.00 502.00,147.00 502.00,147.00 Z
           M 624.00,56.00
           C 624.00,56.00 678.00,56.00 678.00,56.00
             678.00,56.00 678.00,202.00 678.00,202.00
             678.00,202.00 624.00,202.00 624.00,202.00
             624.00,202.00 624.00,56.00 624.00,56.00 Z
           M 694.00,165.00
           C 694.00,165.00 794.00,165.00 794.00,165.00
             797.71,164.99 801.69,165.22 804.96,163.15
             810.94,159.35 811.11,152.66 804.96,148.93
             801.56,146.87 796.85,147.01 793.00,147.00
             793.00,147.00 747.00,147.00 747.00,147.00
             730.55,147.00 718.96,148.78 706.09,135.91
             694.61,124.43 693.83,112.16 694.00,97.00
             694.16,83.34 700.48,69.61 712.00,61.85
             718.56,57.43 726.26,56.01 734.00,56.00
             734.00,56.00 868.00,56.00 868.00,56.00
             868.00,56.00 868.00,92.00 868.00,92.00
             868.00,92.00 780.00,92.00 780.00,92.00
             772.01,92.00 754.69,89.57 752.47,100.00
             750.59,108.85 761.00,109.99 767.00,110.00
             767.00,110.00 815.00,110.00 815.00,110.00
             829.84,110.00 843.47,109.76 854.98,121.04
             878.38,143.94 871.19,201.93 828.00,202.00
             828.00,202.00 694.00,202.00 694.00,202.00
             694.00,202.00 694.00,165.00 694.00,165.00 Z
           M 1045.00,202.00
           C 1045.00,202.00 966.00,202.00 966.00,202.00
             942.40,202.00 923.65,203.79 905.00,185.96
             884.97,166.81 883.70,145.83 884.00,120.00
             884.29,95.14 899.20,69.13 923.00,60.06
             930.33,57.27 938.19,56.01 946.00,56.00
             946.00,56.00 1045.00,56.00 1045.00,56.00
             1045.00,56.00 1045.00,92.00 1045.00,92.00
             1045.00,92.00 959.00,92.00 959.00,92.00
             945.14,92.02 941.78,97.34 938.00,110.00
             938.00,110.00 993.00,110.00 993.00,110.00
             996.48,110.00 1008.99,109.08 1010.98,111.60
             1012.23,113.19 1012.00,117.01 1012.00,119.00
             1012.00,119.00 1012.00,140.00 1012.00,140.00
             1011.96,141.95 1012.10,144.63 1010.40,145.98
             1008.81,147.23 1004.99,147.00 1003.00,147.00
             1003.00,147.00 938.00,147.00 938.00,147.00
             939.48,153.49 941.62,160.31 948.00,163.55
             952.43,165.79 963.67,165.00 969.00,165.00
             969.00,165.00 1016.00,165.00 1016.00,165.00
             1016.00,165.00 1038.00,165.00 1038.00,165.00
             1039.95,165.04 1042.63,164.90 1043.98,166.60
             1045.23,168.19 1045.00,172.01 1045.00,174.00
             1045.00,174.00 1045.00,202.00 1045.00,202.00 Z
           M 1060.00,56.00
           C 1060.00,56.00 1115.00,56.00 1115.00,56.00
             1115.00,56.00 1115.00,142.00 1115.00,142.00
             1115.01,150.78 1117.15,161.61 1127.00,164.43
             1129.29,165.09 1132.59,165.00 1135.00,165.00
             1135.00,165.00 1181.00,165.00 1181.00,165.00
             1181.00,165.00 1181.00,202.00 1181.00,202.00
             1181.00,202.00 1101.00,202.00 1101.00,202.00
             1095.59,201.99 1090.07,201.59 1085.00,199.52
             1068.04,192.59 1060.03,173.19 1060.00,156.00
             1060.00,156.00 1060.00,56.00 1060.00,56.00 Z
           M 1358.00,202.00
           C 1358.00,202.00 1278.00,202.00 1278.00,202.00
             1258.94,202.00 1247.47,204.05 1230.00,194.46
             1224.90,191.66 1222.26,190.06 1218.00,185.96
             1198.33,167.02 1196.71,146.51 1197.00,121.00
             1197.30,95.54 1212.16,68.57 1237.00,59.70
             1244.07,57.17 1251.52,56.01 1259.00,56.00
             1259.00,56.00 1358.00,56.00 1358.00,56.00
             1358.00,56.00 1358.00,92.00 1358.00,92.00
             1358.00,92.00 1272.00,92.00 1272.00,92.00
             1258.14,92.02 1254.78,97.34 1251.00,110.00
             1251.00,110.00 1306.00,110.00 1306.00,110.00
             1309.48,110.00 1321.99,109.08 1323.98,111.60
             1325.23,113.19 1325.00,117.01 1325.00,119.00
             1325.00,119.00 1325.00,140.00 1325.00,140.00
             1324.96,141.95 1325.10,144.63 1323.40,145.98
             1321.81,147.23 1317.99,147.00 1316.00,147.00
             1316.00,147.00 1251.00,147.00 1251.00,147.00
             1252.48,153.49 1254.62,160.31 1261.00,163.55
             1265.43,165.79 1276.67,165.00 1282.00,165.00
             1282.00,165.00 1329.00,165.00 1329.00,165.00
             1329.00,165.00 1351.00,165.00 1351.00,165.00
             1352.95,165.04 1355.63,164.90 1356.98,166.60
             1358.23,168.19 1358.00,172.01 1358.00,174.00
             1358.00,174.00 1358.00,202.00 1358.00,202.00 Z
           M 1374.00,202.00
           C 1374.00,202.00 1374.00,90.00 1374.00,90.00
             1374.02,76.05 1380.01,62.53 1394.00,57.55
             1399.04,55.75 1403.75,55.94 1409.00,56.00
             1423.86,56.18 1433.34,66.70 1444.00,75.73
             1444.00,75.73 1506.00,127.00 1506.00,127.00
             1506.00,127.00 1506.00,56.00 1506.00,56.00
             1506.00,56.00 1561.00,56.00 1561.00,56.00
             1561.00,56.00 1561.00,163.00 1561.00,163.00
             1560.98,178.31 1555.90,194.77 1540.00,200.45
             1535.00,202.24 1530.22,202.06 1525.00,202.00
             1510.60,201.82 1502.42,191.93 1492.00,183.46
             1492.00,183.46 1448.00,147.46 1448.00,147.46
             1448.00,147.46 1428.00,131.00 1428.00,131.00
             1428.00,131.00 1428.00,202.00 1428.00,202.00
             1428.00,202.00 1374.00,202.00 1374.00,202.00 Z
           M 276.00,121.00
           C 276.00,121.00 196.00,121.00 196.00,121.00
             196.00,121.00 208.60,144.00 208.60,144.00
             208.60,144.00 217.09,159.00 217.09,159.00
             217.09,159.00 235.00,190.00 235.00,190.00
             235.00,190.00 237.00,190.00 237.00,190.00
             237.00,190.00 254.91,159.00 254.91,159.00
             254.91,159.00 263.40,144.00 263.40,144.00
             263.40,144.00 276.00,121.00 276.00,121.00 Z
           M 322.00,200.00
           C 322.00,200.00 150.00,200.00 150.00,200.00
             150.00,200.00 167.69,231.00 167.69,231.00
             167.69,231.00 216.87,317.00 216.87,317.00
             216.87,317.00 235.00,348.00 235.00,348.00
             235.00,348.00 237.00,348.00 237.00,348.00
             237.00,348.00 255.13,317.00 255.13,317.00
             255.13,317.00 304.31,231.00 304.31,231.00
             304.31,231.00 322.00,200.00 322.00,200.00 Z
           M 449.00,265.00
           C 449.00,265.00 471.00,265.00 471.00,265.00
             472.82,265.01 475.92,264.85 477.40,266.02
             479.38,267.59 479.00,271.70 479.00,274.00
             479.00,274.00 479.00,305.00 479.00,305.00
             479.00,309.09 478.38,315.51 480.74,318.89
             483.61,323.02 487.50,322.98 492.00,323.00
             492.00,323.00 508.00,323.00 508.00,323.00
             509.95,323.04 512.63,322.90 513.98,324.60
             515.68,326.75 515.00,340.54 515.00,344.00
             515.00,344.00 470.00,344.00 470.00,344.00
             454.92,343.81 449.02,333.95 449.00,320.00
             449.00,320.00 449.00,265.00 449.00,265.00 Z
           M 518.00,344.00
           C 519.14,336.62 522.91,328.28 525.33,321.00
             531.24,303.29 536.03,280.52 553.00,270.20
             563.69,263.71 568.11,265.00 580.00,265.00
             592.60,265.00 607.86,263.43 612.36,279.00
             613.11,281.57 613.00,284.35 613.00,287.00
             613.00,287.00 613.00,344.00 613.00,344.00
             613.00,344.00 583.00,344.00 583.00,344.00
             583.00,344.00 583.00,315.00 583.00,315.00
             583.00,315.00 567.00,315.00 567.00,315.00
             567.00,315.00 567.00,294.00 567.00,294.00
             567.00,294.00 583.00,294.00 583.00,294.00
             583.00,294.00 583.00,286.00 583.00,286.00
             579.15,286.00 574.40,285.51 571.09,287.74
             566.71,290.69 564.92,296.25 563.33,301.00
             563.33,301.00 555.02,326.00 555.02,326.00
             553.90,329.61 551.25,341.04 548.49,342.98
             546.71,344.23 543.14,344.00 541.00,344.00
             541.00,344.00 518.00,344.00 518.00,344.00 Z
           M 621.00,265.00
           C 621.00,265.00 692.00,265.00 692.00,265.00
             694.99,265.00 698.11,264.90 701.00,265.80
             710.25,268.70 715.59,278.80 715.96,288.00
             716.39,298.64 712.14,301.06 712.24,305.00
             712.32,308.18 715.39,310.46 715.91,318.00
             716.55,327.31 712.29,339.21 703.00,342.85
             699.76,344.12 696.41,343.99 693.00,344.00
             693.00,344.00 621.00,344.00 621.00,344.00
             621.00,344.00 621.00,294.00 621.00,294.00
             621.00,294.00 673.00,294.00 673.00,294.00
             675.39,293.99 678.75,294.11 680.84,292.83
             684.08,290.83 683.04,288.21 679.94,286.89
             676.76,285.54 665.08,286.00 661.00,286.00
             661.00,286.00 621.00,286.00 621.00,286.00
             621.00,286.00 621.00,265.00 621.00,265.00 Z
           M 751.00,265.23
           C 751.00,265.23 777.00,265.23 777.00,265.23
             794.05,265.00 810.10,261.86 822.82,276.01
             836.50,291.24 835.32,324.50 818.99,337.61
             812.65,342.70 804.86,343.99 797.00,344.00
             797.00,344.00 765.00,344.00 765.00,344.00
             754.29,344.00 744.75,344.39 736.01,336.79
             724.34,326.63 723.84,314.21 724.00,300.00
             724.21,282.86 734.11,269.48 751.00,265.23 Z
           M 841.00,265.00
           C 841.00,265.00 912.00,265.00 912.00,265.00
             914.65,265.00 917.43,264.89 920.00,265.64
             932.14,269.15 938.58,284.36 935.21,296.00
             934.10,299.86 932.47,301.95 930.00,305.00
             932.19,307.06 933.21,308.14 934.39,311.00
             936.95,317.26 936.00,336.31 936.00,344.00
             936.00,344.00 903.00,344.00 903.00,344.00
             903.00,344.00 903.00,325.00 903.00,325.00
             902.98,322.47 903.18,319.47 901.40,317.43
             898.96,314.62 894.38,315.01 891.00,315.00
             891.00,315.00 871.00,315.00 871.00,315.00
             871.00,315.00 871.00,344.00 871.00,344.00
             871.00,344.00 841.00,344.00 841.00,344.00
             841.00,344.00 841.00,294.00 841.00,294.00
             857.69,294.00 887.84,295.00 903.00,293.00
             901.92,286.51 899.01,286.09 893.00,286.00
             893.00,286.00 841.00,286.00 841.00,286.00
             841.00,286.00 841.00,265.00 841.00,265.00 Z
           M 938.00,344.00
           C 938.00,344.00 951.00,307.00 951.00,307.00
             955.22,294.33 959.61,280.19 971.00,272.04
             982.68,263.70 988.60,265.00 1002.00,265.00
             1011.89,265.00 1019.90,263.30 1027.82,270.62
             1030.41,273.02 1032.18,275.60 1033.20,279.00
             1034.10,281.98 1034.00,284.93 1034.00,288.00
             1034.00,288.00 1034.00,344.00 1034.00,344.00
             1034.00,344.00 1004.00,344.00 1004.00,344.00
             1004.00,344.00 1004.00,315.00 1004.00,315.00
             1004.00,315.00 988.00,315.00 988.00,315.00
             988.00,315.00 988.00,294.00 988.00,294.00
             988.00,294.00 1004.00,294.00 1004.00,294.00
             1004.00,294.00 1004.00,286.00 1004.00,286.00
             999.85,286.00 994.75,285.52 991.21,288.01
             987.64,290.52 986.01,296.02 984.67,300.00
             984.67,300.00 976.02,326.00 976.02,326.00
             974.95,329.43 971.99,341.22 969.49,342.98
             967.71,344.23 964.14,344.00 962.00,344.00
             962.00,344.00 938.00,344.00 938.00,344.00 Z
           M 1038.00,265.00
           C 1038.00,265.00 1094.00,265.00 1094.00,265.00
             1097.39,265.00 1109.00,264.10 1110.98,266.60
             1112.15,268.08 1111.99,271.18 1112.00,273.00
             1112.02,275.51 1112.42,282.57 1110.98,284.40
             1109.51,286.26 1106.13,285.98 1104.00,286.00
             1104.00,286.00 1090.00,286.00 1090.00,286.00
             1090.00,286.00 1090.00,344.00 1090.00,344.00
             1090.00,344.00 1059.00,344.00 1059.00,344.00
             1059.00,344.00 1059.00,286.00 1059.00,286.00
             1059.00,286.00 1038.00,286.00 1038.00,286.00
             1038.00,286.00 1038.00,265.00 1038.00,265.00 Z
           M 1147.00,265.52
           C 1147.00,265.52 1171.00,265.00 1171.00,265.00
             1187.13,265.00 1206.45,261.76 1218.48,275.18
             1238.07,297.04 1231.05,343.94 1194.00,344.00
             1194.00,344.00 1162.00,344.00 1162.00,344.00
             1151.00,344.00 1142.35,344.75 1133.00,337.47
             1120.98,328.11 1119.84,314.98 1120.00,301.00
             1120.21,283.50 1129.90,270.12 1147.00,265.52 Z
           M 1237.00,265.00
           C 1237.00,265.00 1308.00,265.00 1308.00,265.00
             1310.99,265.00 1314.11,264.90 1317.00,265.80
             1326.25,268.70 1331.59,278.80 1331.96,288.00
             1332.39,298.64 1328.14,301.06 1328.24,305.00
             1328.32,308.05 1331.08,310.15 1331.91,317.00
             1331.91,317.00 1331.91,344.00 1331.91,344.00
             1331.91,344.00 1300.00,344.00 1300.00,344.00
             1300.00,344.00 1300.00,325.00 1300.00,325.00
             1299.98,322.51 1300.19,319.49 1298.40,317.51
             1295.86,314.69 1290.49,315.01 1287.00,315.00
             1287.00,315.00 1267.00,315.00 1267.00,315.00
             1267.00,315.00 1267.00,344.00 1267.00,344.00
             1267.00,344.00 1237.00,344.00 1237.00,344.00
             1237.00,344.00 1237.00,294.00 1237.00,294.00
             1237.00,294.00 1289.00,294.00 1289.00,294.00
             1291.39,293.99 1294.75,294.11 1296.84,292.83
             1300.08,290.83 1299.04,288.21 1295.94,286.89
             1292.76,285.54 1281.08,286.00 1277.00,286.00
             1277.00,286.00 1237.00,286.00 1237.00,286.00
             1237.00,286.00 1237.00,265.00 1237.00,265.00 Z
           M 1340.00,265.00
           C 1340.00,265.00 1362.00,265.00 1362.00,265.00
             1362.00,265.00 1368.40,266.02 1368.40,266.02
             1368.40,266.02 1370.00,274.00 1370.00,274.00
             1370.00,274.00 1370.00,344.00 1370.00,344.00
             1370.00,344.00 1340.00,344.00 1340.00,344.00
             1340.00,344.00 1340.00,265.00 1340.00,265.00 Z
           M 1466.00,344.00
           C 1466.00,344.00 1413.00,344.00 1413.00,344.00
             1404.57,343.99 1396.60,342.52 1390.01,336.79
             1374.47,323.26 1373.21,288.52 1388.18,274.32
             1399.47,263.62 1409.82,265.00 1424.00,265.00
             1424.00,265.00 1466.00,265.00 1466.00,265.00
             1466.00,265.00 1466.00,286.00 1466.00,286.00
             1466.00,286.00 1421.00,286.00 1421.00,286.00
             1414.05,286.09 1410.44,286.93 1408.00,294.00
             1408.00,294.00 1447.00,294.00 1447.00,294.00
             1447.00,294.00 1447.00,315.00 1447.00,315.00
             1447.00,315.00 1408.00,315.00 1408.00,315.00
             1409.19,318.46 1410.37,320.83 1414.02,322.26
             1416.63,323.29 1422.96,323.00 1426.00,323.00
             1426.00,323.00 1450.00,323.00 1450.00,323.00
             1464.86,323.00 1465.94,321.80 1466.00,331.00
             1466.00,331.00 1466.00,344.00 1466.00,344.00 Z
           M 1473.00,323.00
           C 1473.00,323.00 1525.00,323.00 1525.00,323.00
             1527.37,322.99 1537.83,322.51 1534.26,317.49
             1532.27,314.72 1526.06,315.00 1523.00,315.00
             1523.00,315.00 1489.00,314.47 1489.00,314.47
             1485.71,313.71 1482.57,312.10 1480.10,309.79
             1468.75,299.16 1470.57,276.07 1484.00,267.66
             1488.49,264.85 1491.96,265.01 1497.00,265.00
             1497.00,265.00 1568.00,265.00 1568.00,265.00
             1568.00,265.00 1568.00,286.00 1568.00,286.00
             1568.00,286.00 1516.00,286.00 1516.00,286.00
             1513.35,286.04 1506.48,286.08 1506.48,290.02
             1506.48,291.26 1507.29,292.19 1508.27,292.83
             1510.40,294.21 1514.49,294.00 1517.00,294.00
             1517.00,294.00 1552.00,294.57 1552.00,294.57
             1555.23,295.45 1558.54,297.85 1560.90,300.17
             1570.62,309.74 1570.50,330.66 1559.91,339.61
             1554.96,343.78 1550.09,343.99 1544.00,344.00
             1544.00,344.00 1473.00,344.00 1473.00,344.00
             1473.00,344.00 1473.00,323.00 1473.00,323.00 Z
           M 761.02,286.20
           C 758.81,287.14 757.54,287.41 756.01,289.39
             753.03,293.25 753.93,306.78 754.00,312.00
             754.05,315.54 754.06,318.84 757.23,321.15
             760.10,323.24 764.59,322.99 768.00,323.00
             768.00,323.00 784.00,323.00 784.00,323.00
             794.18,323.00 801.82,324.18 802.00,311.00
             802.08,305.19 803.08,293.67 799.35,289.23
             796.30,285.59 792.27,286.01 788.00,286.20
             788.00,286.20 761.02,286.20 761.02,286.20 Z
           M 1158.02,286.17
           C 1155.74,287.04 1154.55,287.22 1153.01,289.28
             1150.03,293.24 1150.93,306.71 1151.00,312.00
             1151.05,315.55 1151.10,318.90 1154.23,321.26
             1156.91,323.29 1160.81,322.99 1164.00,323.00
             1164.00,323.00 1184.00,323.00 1184.00,323.00
             1187.84,322.99 1192.40,323.30 1195.35,320.35
             1198.10,317.60 1197.98,313.60 1198.00,310.00
             1198.03,303.85 1199.29,292.84 1194.61,288.43
             1191.65,285.64 1187.76,286.01 1184.00,286.17
             1184.00,286.17 1158.02,286.17 1158.02,286.17 Z
           M 652.00,323.00
           C 652.00,323.00 674.00,323.00 674.00,323.00
             676.45,322.97 684.98,322.80 682.83,318.17
             681.28,314.82 676.07,315.02 673.00,315.00
             673.00,315.00 652.00,315.00 652.00,315.00
             652.00,315.00 652.00,323.00 652.00,323.00 Z" />
</svg>
